<svg xmlns="http://www.w3.org/2000/svg" viewBox="450 105 490 550">
  <path d="M 702.50 642.16 C694.92,644.85 689.33,644.29 681.00,640.02 C677.31,638.12 638.15,615.52 599.50,592.99 C503.93,537.26 476.74,521.16 473.00,518.04 C470.41,515.89 467.22,511.82 465.50,508.47 L 462.50 502.64 L 462.50 253.50 L 465.29 247.82 C468.69,240.89 472.25,237.67 484.24,230.67 C489.33,227.71 513.08,213.81 537.00,199.81 C560.92,185.80 590.85,168.34 603.50,161.02 C616.15,153.69 638.20,140.85 652.50,132.49 C678.83,117.09 683.42,114.15 688.26,113.64 C689.40,113.52 690.56,113.53 692.02,113.55 C692.62,113.56 693.27,113.57 694.00,113.57 C694.70,113.57 695.33,113.56 695.91,113.56 C697.46,113.54 698.67,113.53 699.86,113.66 C704.62,114.19 709.11,117.06 733.50,131.31 C746.70,139.02 772.35,153.95 790.50,164.49 C824.05,183.97 881.98,217.75 903.19,230.21 C915.17,237.24 918.45,240.19 922.30,247.38 L 924.50 251.50 L 924.50 504.50 L 921.64 509.66 C916.70,518.58 916.66,518.60 870.50,545.21 C863.35,549.33 823.75,572.43 782.50,596.54 C741.25,620.66 705.25,641.19 702.50,642.16 ZM 717.16 351.25 C716.97,359.36 717.09,366.00 717.43,366.00 C718.37,366.00 718.98,365.61 781.00,325.17 C799.97,312.80 828.10,294.59 843.50,284.71 C858.90,274.82 871.85,266.42 872.29,266.03 C873.08,265.32 834.82,242.08 828.50,239.44 C824.41,237.73 822.73,237.67 817.71,239.06 C813.09,240.35 808.52,244.25 771.50,278.49 C725.40,321.12 724.22,322.31 720.64,329.86 C717.63,336.22 717.49,337.13 717.16,351.25 ZM 663.00 361.57 C666.58,363.93 669.84,365.89 670.25,365.93 C671.64,366.06 671.05,343.62 669.51,337.69 C666.69,326.86 664.00,323.17 647.82,307.83 C622.45,283.77 577.69,242.89 574.65,240.98 C570.40,238.32 563.84,237.62 559.62,239.39 C557.67,240.20 546.79,246.41 535.45,253.18 C518.83,263.09 515.14,265.68 516.45,266.49 C520.99,269.30 650.45,353.30 663.00,361.57 ZM 728.28 386.39 C727.94,386.73 748.81,387.00 774.66,387.00 L 821.64 387.00 L 825.21 384.25 C827.17,382.74 836.75,374.75 846.50,366.50 C856.26,358.25 866.42,349.80 869.09,347.73 C871.76,345.65 875.19,341.83 876.72,339.23 L 879.50 334.50 L 879.86 311.75 C880.10,296.21 879.88,289.00 879.16,289.00 C877.81,289.00 863.66,298.04 809.77,333.31 C793.12,344.21 768.11,360.47 754.19,369.45 C740.28,378.43 728.61,386.05 728.28,386.39 ZM 563.40 384.75 L 566.39 387.00 L 613.39 387.00 C639.25,387.00 659.97,386.63 659.45,386.18 C658.93,385.73 652.65,381.61 645.50,377.02 C638.35,372.43 627.55,365.46 621.50,361.53 C615.45,357.60 606.33,351.71 601.24,348.44 C596.15,345.17 580.61,335.08 566.71,326.00 C517.54,293.89 509.90,289.00 508.95,289.00 C508.38,289.00 508.00,297.70 508.00,310.98 C508.00,328.98 508.30,333.70 509.63,337.04 C510.98,340.40 515.63,344.80 535.83,361.81 C549.35,373.19 561.75,383.51 563.40,384.75 ZM 532.00 508.17 C532.00,508.63 549.69,509.00 571.32,509.00 C602.96,509.00 611.60,508.71 615.57,507.53 C620.89,505.95 624.09,502.99 641.55,483.50 C646.48,478.00 653.93,469.67 658.12,465.00 C664.62,457.74 667.85,454.42 669.45,450.45 C671.03,446.52 671.02,441.96 671.00,432.32 C671.00,431.23 671.00,430.08 671.00,428.86 C671.00,417.94 670.70,409.00 670.33,409.00 C669.97,409.00 664.90,412.44 659.08,416.64 C617.21,446.89 562.08,486.31 543.75,499.12 C537.29,503.64 532.00,507.71 532.00,508.17 ZM 771.81 507.42 C775.54,508.56 784.52,508.88 815.58,508.93 C837.08,508.97 854.95,508.72 855.30,508.37 C855.92,507.75 849.23,502.83 804.50,471.01 C792.40,462.40 774.17,449.35 764.00,442.01 C725.01,413.88 718.15,409.00 717.58,409.00 C717.26,409.00 717.00,418.36 717.00,429.81 L 717.00 450.61 L 732.62 468.06 C764.31,503.46 766.69,505.84 771.81,507.42 ZM 543.00 476.25 C543.00,476.66 543.19,477.00 543.42,477.00 C543.66,477.00 552.09,471.29 562.17,464.31 C584.47,448.87 594.78,441.77 619.76,424.68 L 639.01 411.50 L 608.76 411.21 C592.12,411.05 577.10,411.17 575.39,411.48 C567.32,412.93 558.62,422.32 555.93,432.50 C555.35,434.70 552.20,445.27 548.93,456.00 C545.67,466.73 543.00,475.84 543.00,476.25 ZM 830.79 467.70 C837.23,472.21 843.00,475.92 843.61,475.95 C844.62,476.00 842.43,468.08 831.96,433.87 C829.54,425.96 828.20,423.33 824.48,419.19 C817.13,411.02 816.49,410.90 780.27,411.22 L 749.05 411.50 L 784.06 435.50 C803.32,448.70 824.35,463.19 830.79,467.70 Z" fill="#002FA7"/>
</svg>
